<svg xmlns="http://www.w3.org/2000/svg" xmlns:xlink="http://www.w3.org/1999/xlink" viewBox="0 0 45 65" fill="#fff" fill-rule="evenodd" stroke="#000" stroke-linecap="round" stroke-linejoin="round"><use xlink:href="#A" x=".5" y=".5"/><symbol id="A" overflow="visible"><g stroke="none" fill-rule="nonzero"><path d="M41.737 15.604c-.444-.38-.95-.825-2.283-1.142 1.966-4.947.634-6.977-1.27-8.5-1.332-1.142-3.742-1.332-5.582-.95C30.574 1.332 26.07 0 21.757 0c-4.313.063-8.817 1.332-10.846 5-1.84-.444-4.186-.2-5.582.95-1.903 1.586-3.235 3.552-1.27 8.5-1.332.38-1.84.825-2.283 1.142-.95.76-1.776 1.903-1.776 3.68.063 2.8 2.283 23.722 2.283 23.722 0 .063.063.127.127.127h.063l1.966-1.84v2.98c0 .063.063.127.127.127 0 0 .063 0 .063-.063l3.362-2.854v1.65c0 .063.063.127.127.127h.063l1.903-1.84 1.332-1.27c.063 6.66-.2 14.78-1.332 22.327-.2 1.205.507 1.522 1.078 1.522.317 0 .634-.063.76-.2 1.84-.95 3.425-4.82 4.377-9.134.825-3.552 1.776-8.182 2.664-13.9.38.2 1.586.57 2.8.57a7.78 7.78 0 0 0 2.79-.57c.888 5.645 1.84 10.276 2.664 13.9 1.015 4.313 2.537 8.182 4.377 9.134.127.063.444.2.76.2.57 0 1.332-.317 1.078-1.522-1.205-7.548-1.395-15.667-1.332-22.327l1.332 1.27 1.903 1.84h.063c.063 0 .127-.063.127-.127v-1.71l3.362 2.854.063.063c.063 0 .127-.063.127-.127v-2.98l1.966 1.84h.063c.063 0 .127 0 .127-.127l2.274-23.714c0-1.65-.825-2.854-1.776-3.615z" fill="#564740"/><path d="M22.455 30.7l-.698-.635-.698.634-.76.76c.444.444.95.76 1.46.76s1.015-.254 1.46-.76z" fill="#483a34"/><path d="M23.914 32.92h-4.313l-.2 1.395h4.694z" fill="#aad9bd"/><path d="M18.839 32.983l-.76 5.582c-1.65 11.227-3.996 23.025-6.66 24.166-.2.063-.38-.127-.38-.317.317-1.776 1.078-6.47 1.332-10.656.2-3.108.254-8.753.254-14.6l1.586-1.522c.127-.127.317-.063.317.127v1.46z" fill="#f6e3d6"/><path d="M14.527 37.296v-1.46c0-.2-.2-.254-.317-.127l-1.015.95c0 .507-.254 9.324-.254 11.164 0 5.074-1.332 13.066-1.205 13.066 1.142 0 2.727-17.316 3.298-24.166z" fill="#faf1ea"/><path d="M24.675 32.983l.76 5.582c1.65 11.227 3.996 23.025 6.66 24.166.2.063.38-.127.38-.317-.317-1.776-1.078-6.406-1.332-10.593-.2-3.108-.254-8.753-.254-14.6l-1.586-1.522c-.127-.127-.317-.063-.317.127v1.46z" fill="#f6e3d6"/><path d="M38.502 15.223c-.95-.127-3.806-.127-3.806-.127l3.552-.825c2.727-5.835-1.46-8.563-3.933-8.563-.825 0-3.108.317-3.362.317 0 0 .444-.063.57-.2 0-1.078-3.045-4.63-9.705-4.63s-9.705 3.552-9.705 4.63c.127.127.507.2.507.2-.254 0-2.474-.317-3.362-.317-2.474 0-6.723 2.727-3.996 8.563l3.552.825s-2.854 0-3.806.127c-1.27.2-3.806 1.586-3.806 3.996 0 1.142.507 4.503.507 4.503h40.15s.507-3.362.507-4.503c-.063-2.4-2.537-3.806-3.87-3.996z" fill="#63c199"/><path d="M36.917 7.93c-.57-.444-1.395-.634-2.474-.634 0 0-.444 0-.76.063-2.6.317-3.5 1.713-5.962 1.713-1.27 0-.57-2.98-.57-2.98s3.17.063 3.17-.127c0-.95-3.742-3.742-8.3-3.742h-.57c-4.567 0-8.3 2.8-8.3 3.742 0 .2 3.17.127 3.17.127s.698 2.98-.57 2.98c-2.474 0-3.425-1.395-5.962-1.713-.254-.063-.76-.063-.76-.063-1.078 0-1.903.2-2.474.634-.825.634-2.537 2.918.444 6.787l1.776.38h25.88l1.776-.38c3.045-3.87 1.332-6.216.507-6.787z" fill="#c5e4d0"/><use xlink:href="#C" fill="#483a34"/><path d="M9.197 10.15a.48.48 0 0 0-.127-.317.51.51 0 0 0-.317-.127c-.254 0-.444.2-.444.507 0 .127.063.317.2.38.063.063.2.063.317.063a.54.54 0 0 0 .38-.507z" fill="#fbf8f5"/><path d="M19.854 16.1l1.143 1.1z" fill="#564740"/><path d="M13.257 36.662l-.634.57zm0 0l.95-.95z" fill="#a8e1c2"/><path d="M21.059 17.253l.444.444-.507-.507z" fill="#564740"/><use xlink:href="#C" x="25.056" fill="#483a34"/><path d="M34.253 10.15a.48.48 0 0 0-.127-.317c-.127-.063-.2-.127-.317-.127a.5.5 0 0 0-.507.507c0 .127.063.317.2.38.063.063.2.063.317.063.2-.063.444-.254.444-.507z" fill="#fbf8f5"/><path d="M23.66 16.1l-1.143 1.1z" fill="#564740"/><path d="M28.987 37.296v-1.46c0-.2.2-.254.317-.127l1.015.95c0 .507.2 9.324.2 11.164 0 5.074 1.332 13.066 1.205 13.066-1.142 0-2.727-17.316-3.298-24.166z" fill="#faf1ea"/><path d="M30.257 36.662l.634.57zm0 0l-.95-.95z" fill="#a8e1c2"/><path d="M22.455 17.253l-.444.444.507-.507z" fill="#564740"/><path d="M35.257 18.585c-3.933-1.713-9.832-2.283-11.608-2.474L22.517 17.2l-.063.063-.507.444c-.063.063-.127.127-.254.127s-.2-.063-.254-.127l-.507-.444-.063-.063-1.142-1.078c-1.776.127-7.675.76-11.608 2.474-4.25 1.84-6.533 5.265-6.533 5.138l.2 2.157c6.343-7.294 19.156 4.82 19.156 4.82l.698-.634.698.634s12.813-12.115 19.156-4.82l.2-2.157c.127.127-2.157-3.298-6.406-5.138z" fill="#aad9bd"/><path d="M21.059 30.7l-.888-8.88c-.888 1.205-2.537 2.283-5.265 2.283-4.186 0-6.66-5.518-13.066 1.776l1.46 14.78 1.776-1.84.2-12.305.254-.2.063 15.413 2.093-1.84.95-.825c.2-3.615.317-9.832.317-9.832l.317-.2.063 11.354 1.713-1.65 1.142-1.142.127-5.7.317-.254V37.2l.57-.57 1.015-.95c.063-.063.127-.063.2-.063.127 0 .2.063.2.2v1.46z" fill="#c5e4d0"/><path d="M26.641 13.9h-9.832c-.127.063-.2.2-.127.38l.063.063 4.186 3.933.507.507c.063.063.127.127.254.127s.2-.063.254-.127l.57-.507 4.186-3.933s0-.063.063-.063c.063-.2 0-.317-.127-.38z" fill="#564740"/><path d="M22.455 30.7l.888-8.88c.888 1.205 2.537 2.283 5.2 2.283 4.186 0 6.66-5.518 13.066 1.776l-1.27 14.08-.127.698-1.776-1.84-.254-12.305-.254-.2-.063 15.413-2.093-1.84-.95-.825-.2-9.832-.38-.2-.063 11.417-1.713-1.65-1.142-1.142-.127-5.7-.317-.254v5.582l-.634-.57-1.015-.95c-.063-.063-.127-.063-.2-.063-.127 0-.2.063-.2.2v1.46z" fill="#c5e4d0"/><path d="M39.39 11.544v-1.078 1.078z" fill="#564740"/><path d="M15.657 10.212c2.093 0 .825-3.425.825-3.425s.2 1.395-1.46 1.395c-3.108 0-3.108-1.078-5.582-1.078-2.03 0-2.727.634-2.727.634 4.757-1.078 5.962 2.474 8.944 2.474z" fill="#aad9bd"/><path d="M24.675 32.983z" fill="#f5e0d3"/><path d="M24.104 34.188l-1.142-1.142c-.38.063-.76.063-1.205.063s-.825 0-1.205-.063l-1.142 1.142-.698 5.074c.825.698 1.84 1.015 2.98 1.015h.065c1.142 0 2.157-.317 2.98-1.015z" fill="#c5e4d0"/><path d="M23.787 32.095l-.57-.57c-.444.444-.95.698-1.46.698s-1.015-.254-1.46-.76l-.57.634-.127.825c.127 0 .254.063.38.063.57.127 1.142.2 1.776.2s1.205-.127 1.776-.2c.127 0 .254-.063.38-.063z" fill="#63c199"/><path d="M27.857 10.212c-2.093 0-.825-3.425-.825-3.425s-.2 1.395 1.46 1.395c3.108 0 3.108-1.078 5.582-1.078 2.03 0 2.727.634 2.727.634-4.757-1.078-5.962 2.474-8.944 2.474z" fill="#aad9bd"/></g></symbol><defs ><path id="C" d="M9.387 9.768c-.2 0-.317.063-.507.2.063.063.063.127.063.2 0 .127-.127.254-.254.254-.063 0-.127 0-.2-.063-.063.2-.127.38-.127.57 0 .634.444 1.142 1.015 1.142s.95-.507.95-1.142c.063-.634-.38-1.142-.95-1.142z"/></defs></svg>